<mxfile host="65bd71144e">
    <diagram id="3XrPIPSLTJZYKzIO0Oli" name="Page-1">
        <mxGraphModel dx="640" dy="359" grid="0" gridSize="10" guides="1" tooltips="1" connect="1" arrows="1" fold="1" page="1" pageScale="1" pageWidth="850" pageHeight="1100" background="none" math="0" shadow="0">
            <root>
                <mxCell id="0"/>
                <mxCell id="1" parent="0"/>
                <mxCell id="94" style="edgeStyle=none;html=1;exitX=0;exitY=1;exitDx=0;exitDy=0;exitPerimeter=0;" parent="1" source="39" edge="1">
                    <mxGeometry relative="1" as="geometry">
                        <mxPoint x="65" y="590" as="targetPoint"/>
                        <Array as="points">
                            <mxPoint x="65" y="245"/>
                        </Array>
                    </mxGeometry>
                </mxCell>
                <mxCell id="39" value="Actor" style="shape=umlActor;verticalLabelPosition=bottom;verticalAlign=top;html=1;outlineConnect=0;" parent="1" vertex="1">
                    <mxGeometry x="65" y="94" width="30" height="60" as="geometry"/>
                </mxCell>
                <mxCell id="91" style="edgeStyle=none;html=1;exitX=0.5;exitY=1;exitDx=0;exitDy=0;" parent="1" source="40" edge="1">
                    <mxGeometry relative="1" as="geometry">
                        <mxPoint x="262" y="600" as="targetPoint"/>
                    </mxGeometry>
                </mxCell>
                <mxCell id="40" value=": Front Ui" style="rounded=0;whiteSpace=wrap;html=1;" parent="1" vertex="1">
                    <mxGeometry x="202" y="89" width="120" height="60" as="geometry"/>
                </mxCell>
                <mxCell id="92" style="edgeStyle=none;html=1;exitX=0.5;exitY=1;exitDx=0;exitDy=0;" parent="1" source="41" edge="1">
                    <mxGeometry relative="1" as="geometry">
                        <mxPoint x="506" y="612" as="targetPoint"/>
                    </mxGeometry>
                </mxCell>
                <mxCell id="41" value=": Contole" style="rounded=0;whiteSpace=wrap;html=1;" parent="1" vertex="1">
                    <mxGeometry x="446" y="89" width="120" height="60" as="geometry"/>
                </mxCell>
                <mxCell id="93" style="edgeStyle=none;html=1;exitX=0.5;exitY=1;exitDx=0;exitDy=0;" parent="1" source="42" edge="1">
                    <mxGeometry relative="1" as="geometry">
                        <mxPoint x="737" y="630" as="targetPoint"/>
                    </mxGeometry>
                </mxCell>
                <mxCell id="42" value=": Firebase" style="rounded=0;whiteSpace=wrap;html=1;" parent="1" vertex="1">
                    <mxGeometry x="677" y="94" width="120" height="60" as="geometry"/>
                </mxCell>
                <mxCell id="107" value="" style="endArrow=classic;html=1;" parent="1" edge="1">
                    <mxGeometry width="50" height="50" relative="1" as="geometry">
                        <mxPoint x="65" y="227" as="sourcePoint"/>
                        <mxPoint x="262" y="227" as="targetPoint"/>
                    </mxGeometry>
                </mxCell>
                <mxCell id="108" value="&lt;font style=&quot;font-size: 16px;&quot;&gt;submit or select one of&lt;br&gt;the suggestion&lt;br&gt;&lt;/font&gt;" style="edgeLabel;html=1;align=center;verticalAlign=middle;resizable=0;points=[];" parent="107" vertex="1" connectable="0">
                    <mxGeometry x="-0.5666" y="5" relative="1" as="geometry">
                        <mxPoint x="53" y="3" as="offset"/>
                    </mxGeometry>
                </mxCell>
                <mxCell id="bAxzm6Vn0liTRe0oTt9C-113" value="" style="rounded=0;whiteSpace=wrap;html=1;fontSize=16;" parent="1" vertex="1">
                    <mxGeometry x="237" y="352" width="286" height="136" as="geometry"/>
                </mxCell>
                <mxCell id="bAxzm6Vn0liTRe0oTt9C-114" value="" style="endArrow=classic;html=1;" parent="1" edge="1">
                    <mxGeometry width="50" height="50" relative="1" as="geometry">
                        <mxPoint x="260" y="274" as="sourcePoint"/>
                        <mxPoint x="506" y="274" as="targetPoint"/>
                    </mxGeometry>
                </mxCell>
                <mxCell id="bAxzm6Vn0liTRe0oTt9C-115" value="&lt;span style=&quot;font-size: 16px;&quot;&gt;search for groups &lt;br&gt;or post&lt;br&gt;&lt;/span&gt;" style="edgeLabel;html=1;align=center;verticalAlign=middle;resizable=0;points=[];" parent="bAxzm6Vn0liTRe0oTt9C-114" vertex="1" connectable="0">
                    <mxGeometry x="-0.5666" y="5" relative="1" as="geometry">
                        <mxPoint x="58" y="4" as="offset"/>
                    </mxGeometry>
                </mxCell>
                <mxCell id="bAxzm6Vn0liTRe0oTt9C-116" value="" style="endArrow=classic;html=1;" parent="1" edge="1">
                    <mxGeometry width="50" height="50" relative="1" as="geometry">
                        <mxPoint x="503" y="310" as="sourcePoint"/>
                        <mxPoint x="503" y="374" as="targetPoint"/>
                        <Array as="points">
                            <mxPoint x="787" y="310"/>
                            <mxPoint x="787" y="374"/>
                        </Array>
                    </mxGeometry>
                </mxCell>
                <mxCell id="bAxzm6Vn0liTRe0oTt9C-117" value="&lt;span style=&quot;font-size: 16px;&quot;&gt;search&lt;/span&gt;" style="edgeLabel;html=1;align=center;verticalAlign=middle;resizable=0;points=[];" parent="bAxzm6Vn0liTRe0oTt9C-116" vertex="1" connectable="0">
                    <mxGeometry x="-0.5666" y="5" relative="1" as="geometry">
                        <mxPoint x="-12" y="4" as="offset"/>
                    </mxGeometry>
                </mxCell>
                <mxCell id="bAxzm6Vn0liTRe0oTt9C-118" value="" style="endArrow=classic;html=1;" parent="1" edge="1">
                    <mxGeometry width="50" height="50" relative="1" as="geometry">
                        <mxPoint x="503" y="403" as="sourcePoint"/>
                        <mxPoint x="261.0000000000002" y="403" as="targetPoint"/>
                    </mxGeometry>
                </mxCell>
                <mxCell id="bAxzm6Vn0liTRe0oTt9C-119" value="&lt;font style=&quot;font-size: 16px;&quot;&gt;Display groups &lt;br&gt;and postes&lt;/font&gt;" style="edgeLabel;html=1;align=center;verticalAlign=middle;resizable=0;points=[];" parent="bAxzm6Vn0liTRe0oTt9C-118" vertex="1" connectable="0">
                    <mxGeometry x="-0.5666" y="5" relative="1" as="geometry">
                        <mxPoint x="-64" y="-5" as="offset"/>
                    </mxGeometry>
                </mxCell>
                <mxCell id="bAxzm6Vn0liTRe0oTt9C-120" value="&lt;span style=&quot;font-size: 16px;&quot;&gt;Result&lt;/span&gt;" style="edgeLabel;html=1;align=center;verticalAlign=middle;resizable=0;points=[];" parent="1" vertex="1" connectable="0">
                    <mxGeometry x="606.0005882352941" y="377" as="geometry">
                        <mxPoint x="16" y="-4" as="offset"/>
                    </mxGeometry>
                </mxCell>
                <mxCell id="bAxzm6Vn0liTRe0oTt9C-121" value="" style="endArrow=classic;html=1;" parent="1" edge="1">
                    <mxGeometry width="50" height="50" relative="1" as="geometry">
                        <mxPoint x="502" y="452" as="sourcePoint"/>
                        <mxPoint x="259.9999999999998" y="452" as="targetPoint"/>
                    </mxGeometry>
                </mxCell>
                <mxCell id="bAxzm6Vn0liTRe0oTt9C-122" value="&lt;font style=&quot;font-size: 16px;&quot;&gt;invalid search&lt;/font&gt;" style="edgeLabel;html=1;align=center;verticalAlign=middle;resizable=0;points=[];" parent="bAxzm6Vn0liTRe0oTt9C-121" vertex="1" connectable="0">
                    <mxGeometry x="-0.5666" y="5" relative="1" as="geometry">
                        <mxPoint x="-64" y="-5" as="offset"/>
                    </mxGeometry>
                </mxCell>
                <mxCell id="bAxzm6Vn0liTRe0oTt9C-123" value="ALT" style="rounded=0;whiteSpace=wrap;html=1;fontSize=16;" parent="1" vertex="1">
                    <mxGeometry x="237" y="352" width="64" height="29" as="geometry"/>
                </mxCell>
                <mxCell id="109" value="&lt;font style=&quot;font-size: 7px;&quot;&gt;INSERT INTO&lt;br&gt;suggestion&lt;br&gt;VALUES (searchVal)&lt;/font&gt;" style="text;html=1;strokeColor=none;fillColor=none;align=center;verticalAlign=middle;whiteSpace=wrap;rounded=0;" vertex="1" parent="1">
                    <mxGeometry x="701" y="264" width="159" height="30" as="geometry"/>
                </mxCell>
                <mxCell id="110" value="&lt;font style=&quot;font-size: 8px;&quot;&gt;SELECT *&lt;br&gt;FROM post, group&lt;br&gt;WHERE post.content LIKE searchVal&lt;br&gt;OR group.name LIKE searchVal&lt;/font&gt;" style="text;html=1;strokeColor=none;fillColor=none;align=center;verticalAlign=middle;whiteSpace=wrap;rounded=0;" vertex="1" parent="1">
                    <mxGeometry x="697" y="377" width="180" height="82" as="geometry"/>
                </mxCell>
            </root>
        </mxGraphModel>
    </diagram>
    <diagram id="JHqk_FuxdcFVGvHleVqG" name="Page-2">
        <mxGraphModel dx="1284" dy="467" grid="0" gridSize="10" guides="1" tooltips="1" connect="1" arrows="1" fold="1" page="1" pageScale="1" pageWidth="850" pageHeight="1100" math="0" shadow="0">
            <root>
                <mxCell id="0"/>
                <mxCell id="1" parent="0"/>
            </root>
        </mxGraphModel>
    </diagram>
</mxfile>